<?xml version="1.0" encoding="UTF-8"?>
<svg id="Capa_2" data-name="Capa 2" xmlns="http://www.w3.org/2000/svg" xmlns:xlink="http://www.w3.org/1999/xlink" viewBox="0 0 177.39 177.39">
  <defs>
    <style>
      .cls-1 {
        fill: url(#linear-gradient);
      }

      .cls-1, .cls-2, .cls-3, .cls-4, .cls-5, .cls-6, .cls-7, .cls-8, .cls-9 {
        stroke-width: 0px;
      }

      .cls-2 {
        fill: url(#linear-gradient-5);
      }

      .cls-3 {
        fill: #dfdfdf;
      }

      .cls-4 {
        fill: gray;
      }

      .cls-5 {
        fill: #bfbfbf;
      }

      .cls-6 {
        fill: #9f9f9f;
      }

      .cls-7 {
        fill: url(#linear-gradient-2);
      }

      .cls-8 {
        fill: url(#linear-gradient-3);
      }

      .cls-9 {
        fill: url(#linear-gradient-4);
      }
    </style>
    <linearGradient id="linear-gradient" x1="2650.85" y1="5062.53" x2="2833.98" y2="5413.45" gradientTransform="translate(-5474.81 -1624.86) rotate(-45)" gradientUnits="userSpaceOnUse">
      <stop offset="0" stop-color="#ee472c"/>
      <stop offset="1" stop-color="#fcb615"/>
    </linearGradient>
    <linearGradient id="linear-gradient-2" x1="2611.16" y1="5075.27" x2="2777.48" y2="5203.21" xlink:href="#linear-gradient"/>
    <linearGradient id="linear-gradient-3" x1="3376.84" y1="1616.55" x2="3443.75" y2="1764.67" gradientTransform="translate(3732.45 1294.31) rotate(-134.94) scale(1 -1)" xlink:href="#linear-gradient"/>
    <linearGradient id="linear-gradient-4" x1="3394.92" y1="1645.49" x2="3478.24" y2="1855.38" gradientTransform="translate(3732.45 1294.31) rotate(-134.94) scale(1 -1)" xlink:href="#linear-gradient"/>
    <linearGradient id="linear-gradient-5" x1="3384.31" y1="1633.09" x2="3442.03" y2="1760.87" gradientTransform="translate(-3351.97 1829.2) scale(1 -1)" xlink:href="#linear-gradient"/>
  </defs>
  <g id="Layer_1" data-name="Layer 1">
    <g>
      <g>
        <g>
          <path class="cls-5" d="m24.93-4.47h0c3.98,0,7.2,3.23,7.2,7.2v37.74h-14.41V2.73c0-3.98,3.23-7.2,7.2-7.2Z" transform="translate(-5.43 22.9) rotate(-45)"/>
          <path class="cls-6" d="m18.1,13.83h0c3.98,0,7.2,3.23,7.2,7.2v28.24h-14.41v-28.24c0-3.98,3.23-7.2,7.2-7.2Z" transform="translate(-17.01 22.04) rotate(-45)"/>
          <path class="cls-4" d="m11.28,32.13h0c3.98,0,7.2,3.23,7.2,7.2v18.73H4.07v-18.73c0-3.98,3.23-7.2,7.2-7.2Z" transform="translate(-28.58 21.18) rotate(-45)"/>
        </g>
        <path class="cls-5" d="m74.95,71.82c-3.64,3.06-9.09,2.6-12.45-.76l-1.73-1.73c-3.15-3.15-8.25-3.15-11.4,0h0c-6.64,6.64-17.41,6.64-24.05,0l-10.39-10.39c-2.81-2.81-2.81-7.37,0-10.19h0c2.81-2.81,7.37-2.81,10.19,0l-6.72-6.72c-2.81-2.81-2.81-7.37,0-10.19,2.81-2.81,7.37-2.81,10.19,0l-6.72-6.72c-2.81-2.81-2.81-7.37,0-10.19s7.37-2.81,10.19,0l35.86,35.86,7.64,7.64c3.73,3.73,3.53,9.91-.6,13.38Z"/>
      </g>
      <g>
        <path class="cls-1" d="m21.07,134.83l35.09,35.17c2.23,2.24,5.86,2.24,8.09,0l73.2-73.06c2.24-2.23,2.24-5.86,0-8.09l-35.09-35.17c-2.23-2.24-5.86-2.24-8.09,0L21.08,126.73c-2.24,2.23-2.24,5.86,0,8.09Z"/>
        <path class="cls-7" d="m21.08,125l35.09,35.17c2.23,2.24,5.86,2.24,8.09,0l73.2-73.06c2.24-2.23,2.24-5.86,0-8.09l-35.09-35.17c-2.23-2.24-5.86-2.24-8.09,0L21.09,116.91c-2.24,2.23-2.24,5.86,0,8.09Z"/>
        <path class="cls-8" d="m21.09,115.18l35.09,35.17c2.23,2.24,5.86,2.24,8.09,0l73.2-73.06c2.24-2.23,2.24-5.86,0-8.09l-35.09-35.17c-2.23-2.24-5.86-2.24-8.09,0L21.1,107.09c-2.24,2.23-2.24,5.86,0,8.09Z"/>
        <path class="cls-9" d="m92.95,46.21c2.96,2.96,7.8,2.97,10.76.01l.98-.98c.28-.28.75-.28,1.03,0l21.54,21.59c.28.28.28.75,0,1.03l-.98.98c-2.96,2.96-2.97,7.8-.01,10.76h0c.28.28.28.75,0,1.03l-58.63,58.53c-.28.28-.75.28-1.03,0h0c-2.96-2.96-7.8-2.97-10.76-.01h0c-.83.83-2.17.82-2.99,0l-19.58-19.62c-.83-.83-.82-2.17,0-2.99h0c2.96-2.96,2.97-7.8.01-10.76l-.98-.98c-.28-.28-.28-.75,0-1.03l58.63-58.53c.28-.28.75-.28,1.03,0l.98.98Z"/>
        <rect class="cls-2" x="65.39" y="78.3" width="27.78" height="27.78" rx="13.89" ry="13.89" transform="translate(70.03 213.43) rotate(-134.94)"/>
      </g>
      <g>
        <g>
          <path class="cls-3" d="m152.19,129.99h14.41v37.74c0,3.98-3.23,7.2-7.2,7.2h0c-3.98,0-7.2-3.23-7.2-7.2v-37.74h0Z" transform="translate(-61.12 157.36) rotate(-45)"/>
          <path class="cls-5" d="m138.64,141.57h14.41v28.24c0,3.98-3.23,7.2-7.2,7.2h0c-3.98,0-7.2-3.23-7.2-7.2v-28.24h0Z" transform="translate(-69.92 149.78) rotate(-45)"/>
          <path class="cls-6" d="m125.09,153.15h14.41v18.73c0,3.98-3.23,7.2-7.2,7.2h0c-3.98,0-7.2-3.23-7.2-7.2v-18.73h0Z" transform="translate(-78.71 142.2) rotate(-45)"/>
        </g>
        <path class="cls-3" d="m105.56,102.43c-3.06,3.64-2.6,9.09.76,12.45l1.73,1.73c3.15,3.15,3.15,8.25,0,11.4h0c-6.64,6.64-6.64,17.41,0,24.05l10.39,10.39c2.81,2.81,7.37,2.81,10.19,0h0c2.81-2.81,2.81-7.37,0-10.19l6.72,6.72c2.81,2.81,7.37,2.81,10.19,0,2.81-2.81,2.81-7.37,0-10.19l6.72,6.72c2.81,2.81,7.37,2.81,10.19,0,2.81-2.81,2.81-7.37,0-10.19l-35.86-35.86-7.64-7.64c-3.73-3.73-9.91-3.53-13.38.6Z"/>
      </g>
    </g>
  </g>
</svg>